<?xml version="1.0" standalone="no"?>
<!DOCTYPE svg PUBLIC "-//W3C//DTD SVG 20010904//EN"
 "http://www.w3.org/TR/2001/REC-SVG-20010904/DTD/svg10.dtd">
<svg version="1.0" xmlns="http://www.w3.org/2000/svg"
 width="1280.000000pt" height="1280.000000pt" viewBox="0 0 1280.000000 1280.000000"
 preserveAspectRatio="xMidYMid meet">
<metadata>
Created by potrace 1.16, written by Peter Selinger 2001-2019
</metadata>
<g transform="translate(0.000000,1280.000000) scale(0.100000,-0.100000)"
fill="#000000" stroke="none">
<path d="M3340 9880 l0 -310 3065 0 3065 0 0 310 0 310 -3065 0 -3065 0 0
-310z"/>
<path d="M3342 8888 l3 -313 3063 -3 3062 -2 0 315 0 315 -3065 0 -3065 0 2
-312z"/>
<path d="M3340 7885 l0 -315 3065 0 3065 0 0 315 0 315 -3065 0 -3065 0 0
-315z"/>
<path d="M3347 7203 c-4 -3 -7 -145 -7 -315 l0 -308 3065 0 3065 0 -2 313 -3
312 -3056 3 c-1681 1 -3059 -1 -3062 -5z"/>
<path d="M3340 5900 l0 -310 3065 0 3065 0 0 310 0 310 -3065 0 -3065 0 0
-310z"/>
<path d="M3340 4905 l0 -315 3063 2 3062 3 3 313 2 312 -3065 0 -3065 0 0
-315z"/>
<path d="M3347 4223 c-4 -3 -7 -145 -7 -315 l0 -308 3065 0 3065 0 -2 313 -3
312 -3056 3 c-1681 1 -3059 -1 -3062 -5z"/>
<path d="M5184 3330 c-98 -21 -187 -83 -245 -172 -54 -85 -72 -162 -67 -294 3
-98 7 -116 37 -180 41 -88 113 -163 196 -201 49 -22 78 -28 155 -31 110 -5
154 5 230 50 69 42 125 115 150 197 32 100 34 97 -71 91 l-92 -5 -12 -41 c-27
-91 -88 -136 -187 -135 -155 0 -252 155 -218 349 23 133 90 208 196 219 93 10
191 -48 210 -122 6 -24 9 -25 95 -25 103 0 104 0 67 97 -29 78 -103 152 -183
183 -67 25 -193 35 -261 20z"/>
<path d="M6030 3325 c-149 -42 -248 -154 -286 -322 -30 -135 -6 -273 67 -382
76 -114 190 -171 341 -171 166 0 282 65 361 201 42 72 60 161 54 269 -10 195
-99 331 -255 391 -75 28 -207 35 -282 14z m216 -164 c91 -42 138 -144 132
-289 -6 -166 -76 -253 -208 -260 -89 -5 -131 10 -178 64 -50 56 -67 116 -66
229 1 179 80 274 229 274 28 0 68 -8 91 -18z"/>
<path d="M8998 3330 c-64 -16 -153 -67 -190 -108 -91 -100 -122 -195 -117
-356 4 -106 6 -116 41 -187 45 -92 102 -150 186 -191 56 -28 78 -33 158 -36
82 -4 98 -2 146 21 29 13 67 39 85 56 l32 32 8 -43 9 -43 62 -3 62 -3 0 231 0
230 -180 0 -180 0 0 -70 0 -70 95 0 c52 0 95 -4 95 -9 0 -25 -34 -99 -57 -123
-75 -78 -249 -65 -317 25 -52 68 -74 177 -56 277 26 146 104 220 229 220 23 0
56 -6 74 -14 38 -15 84 -66 93 -102 6 -23 9 -24 99 -24 l93 0 -9 41 c-22 97
-88 175 -187 222 -52 24 -79 30 -150 33 -48 2 -104 -1 -124 -6z"/>
<path d="M3591 3153 c-36 -93 -74 -195 -87 -228 -12 -33 -56 -149 -97 -257
l-75 -198 98 0 97 0 13 43 c7 23 21 66 32 95 l19 52 158 0 157 0 13 -37 c7
-21 22 -64 33 -95 l21 -58 97 0 97 0 -134 358 c-73 196 -145 387 -159 425
l-26 67 -97 0 -96 0 -64 -167z m214 -199 c25 -73 45 -137 45 -143 0 -7 -35
-11 -106 -11 -97 0 -106 1 -99 18 4 9 28 77 53 149 26 73 50 129 54 125 4 -4
28 -66 53 -138z"/>
<path d="M4220 2895 l0 -425 305 0 306 0 -3 78 -3 77 -190 2 c-104 1 -198 3
-207 3 -17 0 -18 23 -18 345 l0 345 -95 0 -95 0 0 -425z"/>
<path d="M6670 2896 l0 -426 223 0 c247 0 288 7 370 60 118 79 178 246 156
436 -17 154 -90 264 -212 320 -62 29 -63 29 -299 32 l-238 4 0 -426z m447 241
c81 -43 117 -123 116 -257 0 -94 -17 -147 -61 -194 -43 -46 -80 -56 -202 -56
l-110 0 0 266 0 266 113 -4 c81 -3 121 -9 144 -21z"/>
<path d="M7535 3310 c-3 -5 -5 -196 -4 -425 l2 -415 94 0 93 0 0 425 0 425
-89 0 c-50 0 -92 -4 -96 -10z"/>
<path d="M7860 2895 l0 -425 90 0 90 0 2 281 3 281 79 -128 c44 -71 122 -198
174 -281 l95 -153 93 0 94 0 0 425 0 425 -85 0 -85 0 -2 -286 -3 -286 -176
284 -176 283 -97 3 -96 3 0 -426z"/>
</g>
</svg>
